<svg xmlns="http://www.w3.org/2000/svg" class="iconLeftSlogan" viewBox="0 0 300 300"><path d="M0 0h300v300H0z" fill="transparent" class="logo-background-square"/><path d="M113.207 149.485q-.235-.614-.235-1.7 0-1.085.741-6.438.742-5.335.742-8.572 0-.76-.109-2.08 1.917.109 2.406.905.253.47.325.886.072.416.072 1.32 0 .886-.813 6.746-.832 5.859-.85 8.355.126-.036.452-.036 5.48 0 8.156-.76-.18 1.465-.995 2.279-.832.813-2.061.813-.362 0-2.189-.162-1.844-.163-3.562-.163t-3.454.325q.343-1.12 1.374-1.718zm16.656-8.39q-.723 1.265-1.121 2.603-.398 1.32-.398 2.55 0 1.212.542 2.062.543.85 1.556.85 1.428 0 2.658-1.555 1.248-1.574 1.917-3.78.67-2.224.67-4.105t-.145-3.093q.596-.054.76-.054 2.151 0 2.151 2.206 0 .47-.615 3.907-.597 3.436-.597 5.497 0 2.062.778 3.653-1.591-.325-2.315-1.41-.723-1.067-.723-3.093 0-.361.108-1.374-.687 2.405-2.405 3.87-1.736 1.483-3.382 1.483-1.663 0-2.676-1.266-1.013-1.248-1.013-3.454 0-2.225.832-4.34.814-2.116 2.478-3.653 1.645-1.556 3.707-1.556.886 0 1.953.362-1.501.38-2.749 1.392-1.23 1.013-1.971 2.297zm25.481-7.687.018.308q0 .958-.723 6.293-.724 5.317-.724 8.898 0 1.591.163 2.477-.615.055-.669.055-1.14 0-1.7-.525-.542-.524-.542-1.7 0-1.175.85-7.198.831-6.004.831-8.572 0-2.568-.343-3.363.814.108 1.5.633.706.506 1.05 1.374 1.935-1.03 4.304-1.03 2.35 0 3.707 1.446 1.357 1.465 1.357 3.58 0 2.713-1.972 4.884-1.97 2.152-5.316 2.152-.76 0-1.393-.09l-.072-.815q1.7 0 2.966-.506t1.917-1.338q1.284-1.628 1.284-3.798 0-1.573-.995-2.622t-2.894-1.05q-1.139 0-2.604.507zm14.685 7.686q-.742 1.266-1.14 2.604-.38 1.32-.38 2.55 0 1.212.543 2.062.543.85 1.556.85 1.41 0 2.658-1.555 1.23-1.574 1.899-3.78.687-2.224.687-4.105t-.163-3.093q.615-.054.76-.054 2.152 0 2.152 2.206 0 .47-.597 3.907-.615 3.436-.615 5.497 0 2.062.778 3.653-1.592-.325-2.315-1.41-.723-1.067-.723-3.093 0-.361.108-1.374-.687 2.405-2.405 3.87-1.718 1.483-3.382 1.483-1.664 0-2.676-1.266-1.013-1.248-1.013-3.454 0-2.225.832-4.34.814-2.116 2.477-3.653 1.664-1.556 3.708-1.556.886 0 1.953.362-1.501.38-2.73 1.392-1.249 1.013-1.972 2.297zm24.215-1.103q0 1.157-.488 4.105t-.488 4.304q0 1.339.325 1.935.326.597 1.121 1.013-.343.036-.94.036-1.718 0-2.441-.65-.724-.652-.724-2.316 0-.94.506-3.78.507-2.857.507-4.195 0-1.664-1.013-1.664-1.627 0-3.364 2.858-1.736 2.857-1.736 6.89 0 1.591.163 2.478-.67.054-.796.054-2.224 0-2.224-2.188 0-.507.542-3.889.525-3.4.525-5.407 0-2.025-.434-3.707 1.5.578 2.098 1.645.596 1.086.596 2.46 0 1.374-.307 3.2.832-2.856 2.622-4.81 1.773-1.97 3.328-1.97 2.622 0 2.622 3.598zm12.135-2.857q0 1.049-.398 1.465-.416.397-1.194.397h-1.826q-.109.67-.525 3.147-.868 4.702-.868 7.107t.362 3.201q-1.447-.542-2.062-1.61-.596-1.084-.596-2.621 0-1.556.18-2.93.2-1.375.543-3.22.362-1.862.506-2.965-1.446.199-2.839.814-.036-.416-.036-.742 0-1.211.796-1.627.813-.416 2.333-.416.18-1.881.18-2.803t-.018-1.483v-.832q1.158.18 1.79 1.03.634.832.634 2.315 0 .76-.127 1.845 2.206 0 3.11-.741.055.361.055.669zm4.756 6.04q.832-2.857 2.568-4.81 1.736-1.972 3.255-1.972 1.52 0 2.152.922t.633 2.514q0 1.574-.488 4.431-.488 2.875-.488 4.178t.325 1.898q.326.597 1.104 1.013-.326.036-.923.036-1.627 0-2.405-.669-.76-.669-.76-2.297 0-.94.507-3.78.506-2.857.506-4.195 0-1.664-1.175-1.664-.688 0-1.52.724-.831.705-1.609 1.935-.76 1.23-1.284 3.128-.524 1.881-.524 3.708 0 1.844.162 2.73-.615.055-.687.055-1.193 0-1.754-.507-.579-.506-.579-1.591 0-1.067.452-4.141 1.339-9.422 1.339-14.305 0-2.207-.29-2.966 1.465.542 2.062 1.573.597 1.05.597 2.858 0 1.265-.507 5.316-.488 4.051-.669 5.878zm19.152-5.462q-1.52 0-2.568 1.736-1.067 1.755-1.41 4.106h.704q1.339 0 2.333-.38.977-.38 1.52-.977 1.012-1.175 1.012-2.64 0-.832-.398-1.338-.398-.507-1.193-.507zm3.562 10.254q-1.157 1.9-2.55 2.659-1.392.76-3.237.76-1.826 0-3.2-1.628-1.375-1.61-1.375-4.558 0-3.345 1.808-5.968.887-1.265 2.315-2.061 1.429-.778 3.147-.778 3.798 0 3.798 3.671 0 2.207-1.7 3.455-1.718 1.247-3.96 1.247-1.502 0-2.695-.27-.018.252-.018.777 0 4.485 2.658 4.485 2.496 0 4.069-2.478.94.127.94.687zm-.506-13.473q-.018.272-.271.525-.235.235-.543.307-.904-1.14-2.333-2.242-1.428-1.122-2.911-1.574.054-1.32 1.23-2.08 1.338.525 2.766 2.098 1.43 1.556 2.062 2.966zm7.469 8.283q.904-3.291 2.188-4.847 1.284-1.555 2.387-1.555 1.104 0 1.646.814.56.832.56 2.098t-.65 2.188q-.67.922-1.935.922-.398 0-.633-.054.868-1.248.868-2.532 0-.904-.742-.904-.578 0-1.23.67-.669.686-1.265 1.898-.615 1.23-1.013 3.165-.416 1.953-.416 4.213 0 .254.126 2.153-.65.054-.76.054-2.224 0-2.224-2.188 0-.507.543-3.889.524-3.4.524-5.407 0-2.025-.434-3.707 1.501.578 2.098 1.645.597 1.086.597 2.514 0 1.429-.235 2.749zm14.92-5.064q-1.52 0-2.586 1.736-1.05 1.755-1.393 4.106h.705q1.339 0 2.333-.38.977-.38 1.52-.977 1.012-1.175 1.012-2.64 0-.832-.398-1.338-.398-.507-1.193-.507zm3.562 10.254q-1.157 1.9-2.55 2.659-1.392.76-3.237.76-1.826 0-3.2-1.628-1.375-1.61-1.375-4.558 0-3.345 1.808-5.968.887-1.265 2.315-2.061 1.429-.778 3.147-.778 3.798 0 3.798 3.671 0 2.207-1.7 3.455-1.718 1.247-3.96 1.247-1.502 0-2.695-.27-.018.252-.018.777 0 4.485 2.658 4.485 2.496 0 4.069-2.478.94.127.94.687z" fill="#000"/><defs><linearGradient x1="0%" x2="100%" y1="0%" y2="0%" gradientTransform="rotate(25)"><stop offset="0%" stop-color="#B4373D"/><stop offset="100%" stop-color="#B23ACB"/></linearGradient></defs><g fill="#1d1d1b" stroke="none" transform="translate(37.326 117.896) scale(.6415)"><path d="M44 46.07V46a5.74 5.74 0 0 0-3.52-2.72h-.14a11.6 11.6 0 0 0-2.5-.47 15.62 15.62 0 0 1-6.43-2.38.75.75 0 0 0-.84 1.24 17.29 17.29 0 0 0 2 1.11c0 .1-.09.2-.12.31a6.09 6.09 0 0 0 4.15 7.51 6.46 6.46 0 0 0 1.78.25 5.9 5.9 0 0 0 4.69-2.28 10.33 10.33 0 0 1-.18 3 .75.75 0 0 0 .47 1 .76.76 0 0 0 .24 0 .75.75 0 0 0 .71-.51 11.57 11.57 0 0 0 .23-4.1 4.94 4.94 0 0 0-.54-1.89zm-4.47-1.49a1.28 1.28 0 0 1 0 .52 1.3 1.3 0 1 1-2.53-.71 1.27 1.27 0 0 1 .09-.17l.6.07a10.89 10.89 0 0 1 1.86.3zm.94 4.25a4.67 4.67 0 0 1-3.48.32 4.59 4.59 0 0 1-3.14-5.67v-.12a15.83 15.83 0 0 0 1.7.55v.06A2.8 2.8 0 1 0 41 45.14a3.86 3.86 0 0 1 1.48 1.32 4.27 4.27 0 0 1-1.99 2.37zm27.1-5.76c0-.11-.08-.2-.12-.31a17.29 17.29 0 0 0 2-1.11.75.75 0 0 0-.84-1.24 15.62 15.62 0 0 1-6.43 2.38 11.59 11.59 0 0 0-2.52.47h-.12A5.74 5.74 0 0 0 56 46v.05a4.94 4.94 0 0 0-.54 1.95 11.57 11.57 0 0 0 .23 4.1.75.75 0 0 0 .71.51.75.75 0 0 0 .72-1 10.27 10.27 0 0 1-.19-3 5.9 5.9 0 0 0 4.69 2.28 6.46 6.46 0 0 0 1.78-.25 6.09 6.09 0 0 0 4.17-7.57zm-5.3 1.22.6-.07a1.26 1.26 0 0 1 .09.17 1.3 1.3 0 0 1-.89 1.6 1.27 1.27 0 0 1-1.63-1.41 10.89 10.89 0 0 1 1.84-.29zm.73 4.86a4.67 4.67 0 0 1-3.48-.32 4.27 4.27 0 0 1-2-2.38A3.86 3.86 0 0 1 59 45.14a2.84 2.84 0 0 0 .07.37 2.8 2.8 0 0 0 2.69 2A2.8 2.8 0 0 0 64.41 44v-.06a15.83 15.83 0 0 0 1.7-.55v.12A4.59 4.59 0 0 1 63 49.15z"/><path d="M46.33 44.89c-.16-2.25-2-3.68-5.15-3.92a11.57 11.57 0 0 1-4.68-1.69.75.75 0 0 0-.83 1.25 12.92 12.92 0 0 0 5.4 1.93c1.35.1 3.63.57 3.77 2.53a.75.75 0 0 0 .75.7h.05a.75.75 0 0 0 .69-.8zm12.98-2.43a12.92 12.92 0 0 0 5.4-1.93.75.75 0 0 0-.83-1.25A11.58 11.58 0 0 1 59.19 41c-3.11.24-5 1.67-5.15 3.92a.75.75 0 0 0 .7.8h.05a.75.75 0 0 0 .75-.7c.14-2.02 2.46-2.45 3.77-2.56zm-24.67-5.21a.75.75 0 1 0 1.16-.95l-3.19-3.92a.75.75 0 1 0-1.16.95zM38 35.08a.75.75 0 0 0 .7.48.75.75 0 0 0 .7-1l-1.41-3.68a.75.75 0 1 0-1.4.54zm4 .11a.75.75 0 0 0 .75-.69l.25-3.18a.75.75 0 0 0-.69-.81.74.74 0 0 0-.81.69l-.25 3.19a.75.75 0 0 0 .75.8z"/><path d="M95.31 61c-3.9-1.24-13.08-1.13-20.54-.79 5-6.31 5-12.41 4.11-15.28-.68-2.15-1.73-7.57-.39-9.68a1.56 1.56 0 0 1 1.18-.77c1.76-.23 2.08-2.06 2.33-3.52a8.38 8.38 0 0 1 .35-1.54 4.25 4.25 0 0 1 1.22-1.37 10.59 10.59 0 0 0 3.18-4.23c1.59-3.91-.54-5.84-.63-5.92a.73.73 0 0 0-.28-.13h-.14a6.16 6.16 0 0 0-4.81.73c-.68.33-1.52.73-2.76 1.25a6.88 6.88 0 0 1-8-1.32c-4.5-4.32-7.67-5.57-20.08-5.57s-15.54 1.26-20 5.57a6.88 6.88 0 0 1-8 1.32 51.69 51.69 0 0 1-2.76-1.25 6.16 6.16 0 0 0-4.81-.73h-.14a.73.73 0 0 0-.28.13c-.09.08-2.22 2-.63 5.92a10.59 10.59 0 0 0 3.18 4.23 4.26 4.26 0 0 1 1.22 1.37A8.4 8.4 0 0 1 18 31c.25 1.47.56 3.29 2.33 3.52a1.56 1.56 0 0 1 1.18.77c1.34 2.11.29 7.53-.39 9.68-.91 2.87-.87 9 4.11 15.28-7.46-.34-16.64-.45-20.54.79a.75.75 0 0 0 .46 1.43c4.09-1.3 15-1 21.18-.66h.25l.65.69c-7.68.11-12.89.64-15.5 1.58a.75.75 0 1 0 .51 1.41c2.58-.93 8.3-1.45 16.56-1.51.35.3.71.59 1.07.88-6.47.36-17 1.21-21 3a.75.75 0 0 0 .6 1.37c4.17-1.83 16.18-2.64 22.22-2.95l1 .72.1.07c-6.29.61-10.59 1.4-12.79 2.36a.75.75 0 0 0 .6 1.37c2.07-.91 6.45-1.69 12.72-2.28A19.94 19.94 0 0 0 34 74c1.63 4.32 3.86 5.38 6.46 5.6a5.67 5.67 0 0 0 1.52 1.81 15.18 15.18 0 0 0-3.39 4.47.75.75 0 0 0 1.4.54c.27-.7 1.08-2 3.29-4.19a10.86 10.86 0 0 0 2 .78 11.32 11.32 0 0 0-.92 3.43.75.75 0 0 0 .71.79.75.75 0 0 0 .75-.71 10.34 10.34 0 0 1 .91-3.17 19.89 19.89 0 0 0 6.54 0 10.5 10.5 0 0 1 .91 3.17.75.75 0 0 0 .75.71.75.75 0 0 0 .71-.79 11.32 11.32 0 0 0-.89-3.44 10.86 10.86 0 0 0 2-.78c2.21 2.19 3 3.49 3.29 4.19a.75.75 0 0 0 1.4-.54 15.18 15.18 0 0 0-3.39-4.47 5.67 5.67 0 0 0 1.52-1.81c2.6-.22 4.83-1.27 6.45-5.59a19.92 19.92 0 0 0 .65-5.45c6.27.59 10.66 1.37 12.72 2.28a.75.75 0 1 0 .6-1.37c-2.22-1-6.6-1.77-13-2.38l.8-.56.31-.22c6 .3 18.2 1.11 22.42 3a.75.75 0 0 0 .6-1.37c-4.06-1.78-14.61-2.62-21.07-3q.57-.43 1.11-.88c8.28.05 14 .57 16.59 1.51a.75.75 0 0 0 .51-1.41c-2.6-.94-7.81-1.47-15.5-1.58l.65-.69h.25c6.15-.31 17.09-.64 21.18.66a.75.75 0 0 0 .47-1.54zm-42 18.91a.75.75 0 1 0-1.3.75c.16.27.39.7.64 1.2a18.15 18.15 0 0 1-5.22 0c.35-.71.63-1.19.64-1.2a.75.75 0 1 0-1.3-.75c0 .06-.42.73-.87 1.66a7 7 0 0 1-3.58-2h2.43A6 6 0 0 0 50 76.43a6 6 0 0 0 5.29 3.13h2.43a7 7 0 0 1-3.58 2c-.45-.9-.83-1.56-.87-1.63zm17.1-17.26-.08.06c-.84.7-1.77 1.38-2.68 2h-.78c.13-1.71.45-3.25 1.07-3.71a.75.75 0 0 0-.94-1.2c-1 .83-1.44 2.64-1.63 4.83h-.61a.73.73 0 0 0-.77.73.75.75 0 0 0 .73.77h.56v.74h-.18a.76.76 0 0 0-.81.68.75.75 0 0 0 .68.81h.21a20 20 0 0 1-.56 5.05c-1.41 3.75-3.1 4.54-5.55 4.66h-3.78a4.54 4.54 0 0 1-4.53-4.46 5.51 5.51 0 0 1 1.16-.84c1-.64 2.47-1.52 1.93-2.79-.19-.44-.06-.65 1.66-1.82l.63-.43a2.48 2.48 0 0 0 1.3-2 2.08 2.08 0 0 0-.95-1.6.74.74 0 0 0-1 .22.76.76 0 0 0 .21 1c.08.06.26.23.27.37s-.17.41-.66.75l-.62.43c-1.63 1.1-2.91 2-2.2 3.57-.08.25-.89.74-1.33 1a10.22 10.22 0 0 0-1.13.77 10.22 10.22 0 0 0-1.13-.77 7.46 7.46 0 0 1-1.33-.93c.71-1.67-.58-2.54-2.2-3.65l-.62-.43c-.48-.34-.66-.61-.66-.75s.18-.31.26-.37a.75.75 0 0 0-.81-1.26 2.08 2.08 0 0 0-.95 1.6 2.48 2.48 0 0 0 1.3 2l.63.43c1.73 1.17 1.85 1.38 1.66 1.82-.54 1.28.89 2.15 1.93 2.79a10.47 10.47 0 0 1 1.16.77 4.54 4.54 0 0 1-4.54 4.52h-1.56c-3.72.09-6 .14-7.78-4.66a20.07 20.07 0 0 1-.56-5.05h.21a.75.75 0 1 0-.13-1.5h-.14v-.74h.56a.75.75 0 0 0 0-1.5h-.61c-.19-2.19-.58-4-1.63-4.83A.75.75 0 1 0 32.06 61c.62.49.91 2 1.06 3.71h-.95c-.85-.64-1.7-1.31-2.48-2a.73.73 0 0 0-.15-.14c-.26-.23-.52-.46-.76-.69l2.33.15h.06a.75.75 0 0 0 .06-1.5s-1.57-.12-4-.25c-5.44-6.19-5.58-12.2-4.72-14.92 0-.08 2.33-7.62.23-10.93a3.07 3.07 0 0 0-2.2-1.43c-.62-.08-.82-1-1-2.29a9.51 9.51 0 0 0-.44-1.84 5.37 5.37 0 0 0-1.63-1.95 9 9 0 0 1-2.78-3.67c-1-2.36-.23-3.66.1-4.08a3.19 3.19 0 0 1 2.07.54c.07.06 7.52 5.52 10.79 5.52H28c-3 2.15-4.76 4.9-4.76 7.59a.75.75 0 0 0 1.5 0c0-2.81 2.6-5.89 6.63-7.86a13.71 13.71 0 0 0 4.48-1.49.75.75 0 1 0-.73-1.31 15.48 15.48 0 0 1-7.56 1.58c-1.25 0-3.64-1.21-5.86-2.55a8.3 8.3 0 0 0 9.3-1.73c4-3.82 6.49-5.15 19-5.15s15 1.34 19 5.15a8.18 8.18 0 0 0 5.77 2.45 9.77 9.77 0 0 0 3.44-.68c-2.21 1.33-4.6 2.53-5.84 2.53a15.48 15.48 0 0 1-7.56-1.58.75.75 0 0 0-.73 1.31A13.72 13.72 0 0 0 68.59 25c4 2 6.63 5 6.63 7.86a.75.75 0 0 0 1.5 0c0-2.7-1.77-5.45-4.76-7.59h.44c3.27 0 10.72-5.46 10.79-5.52a3.19 3.19 0 0 1 2.06-.54c.33.43 1.05 1.73.1 4.08a9 9 0 0 1-2.78 3.67 5.37 5.37 0 0 0-1.63 1.95 9.49 9.49 0 0 0-.44 1.84c-.23 1.33-.42 2.21-1 2.29a3.07 3.07 0 0 0-2.25 1.45c-2.11 3.31.2 10.86.23 10.93.87 2.73.72 8.74-4.72 14.92-2.39.13-4 .25-4 .25a.75.75 0 0 0 .06 1.5h.06l2.33-.15c-.21.23-.52.47-.8.71z"/><path d="M64.77 37.53a.75.75 0 0 0 .58-.28l3.19-3.92a.75.75 0 1 0-1.16-.95l-3.19 3.92a.75.75 0 0 0 .58 1.22zm-3.7-2.02a.74.74 0 0 0 .27 0 .75.75 0 0 0 .7-.48l1.41-3.68a.75.75 0 1 0-1.4-.54l-1.41 3.68a.75.75 0 0 0 .43 1.02zM58 35.2a.75.75 0 0 0 .69-.81l-.25-3.19a.75.75 0 0 0-1.5.12l.25 3.19a.75.75 0 0 0 .81.69z"/><circle cx="38.13" cy="69.84" r="1.05"/><circle cx="38.48" cy="73.41" r="1.05"/><circle cx="41.22" cy="75.76" r="1.05"/><circle cx="42.14" cy="72.11" r="1.05"/><circle cx="45.06" cy="73.95" r="1.05"/><circle cx="61.87" cy="69.84" r="1.05"/><circle cx="61.52" cy="73.41" r="1.05"/><circle cx="58.78" cy="75.76" r="1.05"/><circle cx="57.86" cy="72.11" r="1.05"/><circle cx="54.94" cy="73.95" r="1.05"/><path d="M53.56 52.5a.75.75 0 0 0-.81.69A9.21 9.21 0 0 1 50 58.58a9.16 9.16 0 0 1-2.73-5.4.75.75 0 0 0-1.5.12 11 11 0 0 0 3.73 6.86.75.75 0 0 0 .47.17.75.75 0 0 0 .47-.17 11 11 0 0 0 3.73-6.86.75.75 0 0 0-.61-.8zm-13.19 2.7a.75.75 0 0 0-1 .27c-.2.35-.46.72-.73 1.11-1.34 1.94-3.36 4.88-.51 8a.75.75 0 0 0 1.1-1c-1.89-2.05-.93-3.82.64-6.1.29-.43.57-.83.79-1.21a.75.75 0 0 0-.29-1.07zm20.32.27a.75.75 0 1 0-1.3.75c.22.38.5.78.79 1.21 1.57 2.28 2.53 4.05.64 6.1a.75.75 0 1 0 1.1 1c2.85-3.09.83-6-.51-8-.25-.34-.51-.71-.72-1.06zM41.89 65a.75.75 0 0 0-1.43-.46 4.13 4.13 0 0 0 1.91 4.82.75.75 0 0 0 .75-1.3A2.62 2.62 0 0 1 41.89 65zm15.73 4.33a4.13 4.13 0 0 0 1.91-4.82.75.75 0 0 0-1.43.46A2.62 2.62 0 0 1 56.87 68a.75.75 0 0 0 .75 1.3zm-4.74-4.18a3.83 3.83 0 0 1-5.77 0 .75.75 0 0 0-1.16 1 5.32 5.32 0 0 0 8.08 0 .75.75 0 0 0-1.16-1zM30.51 50.52a.75.75 0 1 0-.72 1.31c2.63 1.45 3.77 3.59 3.77 4.36a.75.75 0 0 0 1.5 0c0-1.55-1.7-4.1-4.55-5.67zm40.08.3a.75.75 0 0 0-1-.3C66.72 52.09 65 54.64 65 56.2a.75.75 0 0 0 1.5 0c0-.77 1.14-2.92 3.77-4.36a.75.75 0 0 0 .32-1.02z"/></g><path d="m115.537 167.103-.575-1.438h-2.192l-.57 1.438h-.367l1.83-4.582h.411l1.83 4.582h-.367zm-2.638-1.756h1.94l-.8-1.998-.168-.486h-.005l-.168.47-.799 2.014zm8.976-.486h1.885v2.242h-.278l-.015-.799q-.188.417-.585.645-.402.223-.992.223-.625 0-1.09-.287-.472-.288-.725-.824t-.253-1.25q0-.713.263-1.249.258-.536.729-.823.471-.288 1.096-.288.704 0 1.146.278.446.278.67.848l-.323.164q-.159-.477-.536-.725t-.957-.247q-.51 0-.903.247-.386.248-.6.71-.218.46-.218 1.086 0 .952.456 1.497t1.26.546q.5 0 .848-.198t.51-.521q.17-.323.17-.694v-.253h-1.558v-.328zm6.933 1.924h2.891v.318h-3.238v-4.582h3.13v.317h-2.783v1.77h2.197v.328h-2.197v1.85zm10.89-4.264v4.582h-.43l-2.43-3.596-.338-.61h-.01l.025.576v3.63h-.337v-4.582h.441l2.42 3.59.347.615-.015-.575v-3.63h.328zm8.54 3.421q-.193.586-.674.908-.486.322-1.156.322-.624 0-1.1-.287-.472-.288-.73-.824-.252-.535-.252-1.25t.252-1.249q.258-.536.73-.823.476-.288 1.09-.288 1.374 0 1.78 1.13l-.341.16q-.159-.486-.511-.73t-.908-.242q-.51 0-.902.247t-.61.71q-.213.46-.213 1.086 0 .625.213 1.086.208.461.595.709.387.248.907.248.556 0 .943-.273.387-.273.54-.769l.347.13zm4.84.843h2.897v.318h-3.244v-4.582h3.13v.317h-2.782v1.77h2.201v.328h-2.201v1.85zm14.462-4.264q1.096 0 1.69.58.596.58.596 1.676 0 1.126-.595 1.726t-1.691.6h-1.444v-4.582h1.444zm.03 4.264q.917 0 1.403-.52.49-.516.49-1.488 0-.932-.49-1.433-.486-.506-1.404-.506h-1.125v3.947h1.125zm7.235 0h2.891v.318h-3.238v-4.582h3.129v.317h-2.782v1.77h2.197v.328h-2.197v1.85zm15.284-2.896-.922 3.214h-.432l-1.428-4.582h.377l1.27 4.3 1.2-4.3h.401l1.2 4.304 1.285-4.304h.357l-1.433 4.582h-.427l-.927-3.214-.253-.992h-.01l-.258.992zm8.054 2.896h2.896v.318h-3.243v-4.582h3.134v.317h-2.787v1.77h2.202v.328h-2.202v1.85zm7.374.318v-4.582h1.617q.754 0 1.126.312.367.312.367.903 0 .401-.219.679t-.62.362v.005q.447.07.705.362.263.293.263.724 0 .59-.422.913-.422.322-1.2.322h-1.617zm.347-2.47h1.28q1.116 0 1.116-.897t-1.116-.898h-1.28v1.795zm0 2.152h1.34q.584 0 .882-.238.298-.238.298-.679 0-.451-.298-.684-.298-.233-.883-.233h-1.339v1.834zm14.6-4.264q1.101 0 1.691.58.595.58.595 1.676 0 1.126-.595 1.726-.59.6-1.69.6h-1.444v-4.582h1.443zm.03 4.264q.917 0 1.408-.52.486-.516.486-1.488 0-.932-.486-1.433-.49-.506-1.408-.506h-1.126v3.947h1.126zm7.235 0h2.897v.318h-3.244v-4.582h3.13v.317h-2.783v1.77h2.202v.328h-2.202v1.85zm8.788-4.334q1.294 0 1.73 1.012l-.297.243q-.173-.491-.52-.714-.343-.223-.903-.223-.407 0-.704.128-.298.124-.451.338-.16.218-.16.486 0 .263.135.436.129.174.446.298.317.119.873.218.893.154 1.27.446.371.288.371.804 0 .367-.213.654-.213.283-.605.437-.397.158-.902.158-.72 0-1.215-.287-.501-.288-.68-.809l.308-.238q.138.496.555.754.422.263 1.041.263.596 0 .972-.243.382-.243.382-.67 0-.367-.312-.58-.308-.218-1.071-.347-.645-.114-1.022-.273-.372-.158-.535-.396-.164-.234-.164-.59 0-.353.203-.65.204-.303.585-.476.377-.179.883-.179zm6.7.07v4.582h-.347v-4.582h.347zm6.68 2.34h1.88v2.242h-.278l-.01-.799q-.189.417-.59.645-.397.223-.987.223-.625 0-1.096-.287-.466-.288-.72-.824t-.252-1.25q0-.713.258-1.249.263-.536.734-.823.47-.288 1.096-.288.699 0 1.145.278.447.278.665.848l-.318.164q-.158-.477-.535-.725-.382-.247-.957-.247-.516 0-.903.247t-.605.71q-.213.46-.213 1.086 0 .952.456 1.497.451.546 1.26.546.496 0 .843-.198t.516-.521q.168-.323.168-.694v-.253h-1.557v-.328zm10.102-2.34v4.582h-.432l-2.43-3.596-.337-.61h-.01l.02.576v3.63h-.332v-4.582h.436l2.425 3.59.347.615-.014-.575v-3.63h.327z" fill="#000"/></svg>