<svg xmlns="http://www.w3.org/2000/svg" class="iconLeftSlogan" viewBox="0 0 488 90"><path d="M134.297 52.854q-.566-1.481-.566-4.096 0-2.614 1.786-15.512 1.787-12.854 1.787-20.653 0-1.83-.262-5.011 4.62.261 5.796 2.178.61 1.133.784 2.135.174 1.003.174 3.181 0 2.135-1.96 16.253-2.005 14.118-2.049 20.13.305-.086 1.09-.086 13.202 0 19.651-1.83-.436 3.529-2.396 5.49-2.005 1.96-4.968 1.96-.871 0-5.272-.392-4.444-.392-8.584-.392t-8.322.784q.828-2.701 3.311-4.139zm40.131-20.218q-1.743 3.05-2.702 6.275-.958 3.18-.958 6.143 0 2.92 1.307 4.968t3.747 2.048q3.443 0 6.406-3.748 3.006-3.79 4.618-9.106 1.612-5.36 1.612-9.891t-.348-7.451q1.438-.131 1.83-.131 5.185 0 5.185 5.316 0 1.133-1.481 9.412-1.438 8.278-1.438 13.246 0 4.967 1.873 8.801-3.834-.784-5.577-3.398-1.743-2.571-1.743-7.451 0-.872.262-3.312-1.656 5.795-5.796 9.325-4.183 3.573-8.148 3.573-4.009 0-6.449-3.05-2.44-3.007-2.44-8.323 0-5.36 2.005-10.457 1.96-5.098 5.97-8.802 3.964-3.747 8.932-3.747 2.135 0 4.706.871-3.617.915-6.624 3.355-2.963 2.44-4.749 5.534zm61.394-18.518.044.74q0 2.31-1.743 15.164-1.743 12.81-1.743 21.438 0 3.834.392 5.97-1.481.13-1.612.13-2.745 0-4.096-1.264-1.307-1.263-1.307-4.096 0-2.832 2.048-17.342 2.004-14.466 2.004-20.653 0-6.188-.828-8.105 1.961.262 3.617 1.525 1.7 1.22 2.527 3.312 4.662-2.484 10.37-2.484 5.665 0 8.933 3.486 3.268 3.53 3.268 8.627 0 6.536-4.75 11.765-4.749 5.185-12.81 5.185-1.83 0-3.355-.218l-.174-1.96q4.096 0 7.146-1.22t4.618-3.225q3.094-3.921 3.094-9.15 0-3.791-2.396-6.318t-6.972-2.527q-2.745 0-6.275 1.22zm35.382 18.518q-1.787 3.05-2.745 6.275-.916 3.18-.916 6.143 0 2.92 1.308 4.968 1.307 2.048 3.747 2.048 3.399 0 6.405-3.748 2.963-3.79 4.575-9.106 1.656-5.36 1.656-9.891t-.392-7.451q1.481-.131 1.83-.131 5.185 0 5.185 5.316 0 1.133-1.438 9.412-1.481 8.278-1.481 13.246 0 4.967 1.873 8.801-3.834-.784-5.577-3.398-1.743-2.571-1.743-7.451 0-.872.262-3.312-1.656 5.795-5.796 9.325-4.139 3.573-8.148 3.573-4.008 0-6.449-3.05-2.44-3.007-2.44-8.323 0-5.36 2.005-10.457 1.96-5.098 5.97-8.802 4.008-3.747 8.932-3.747 2.135 0 4.706.871-3.617.915-6.58 3.355-3.006 2.44-4.75 5.534zm58.344-2.658q0 2.789-1.177 9.891t-1.176 10.37q0 3.225.784 4.663.785 1.438 2.702 2.44-.828.087-2.266.087-4.14 0-5.882-1.568-1.743-1.57-1.743-5.578 0-2.266 1.22-9.107 1.22-6.884 1.22-10.108 0-4.01-2.44-4.01-3.922 0-8.105 6.885t-4.183 16.602q0 3.834.392 5.97-1.612.13-1.917.13-5.36 0-5.36-5.272 0-1.22 1.308-9.369 1.263-8.191 1.263-13.028 0-4.88-1.045-8.932 3.616 1.394 5.054 3.965 1.438 2.614 1.438 5.926 0 3.311-.74 7.712 2.004-6.885 6.317-11.59 4.27-4.75 8.018-4.75 6.318 0 6.318 8.671zm29.237-6.884q0 2.527-.958 3.53-1.002.958-2.876.958h-4.401q-.261 1.612-1.264 7.581-2.091 11.33-2.091 17.125t.871 7.712q-3.485-1.307-4.967-3.878-1.438-2.614-1.438-6.318 0-3.747.436-7.059.48-3.311 1.307-7.756.872-4.488 1.22-7.146-3.486.48-6.84 1.96-.088-1.001-.088-1.786 0-2.919 1.917-3.921 1.961-1.002 5.621-1.002.436-4.532.436-6.754t-.044-3.573v-2.005q2.789.436 4.314 2.484 1.525 2.005 1.525 5.577 0 1.83-.305 4.445 5.316 0 7.495-1.787.13.872.13 1.613zm11.46 14.553q2.004-6.885 6.187-11.59 4.183-4.75 7.844-4.75 3.66 0 5.185 2.222t1.525 6.057q0 3.79-1.177 10.675-1.176 6.929-1.176 10.066t.784 4.575q.784 1.438 2.658 2.44-.784.087-2.222.087-3.922 0-5.795-1.612-1.83-1.612-1.83-5.534 0-2.266 1.22-9.107 1.22-6.884 1.22-10.108 0-4.01-2.833-4.01-1.655 0-3.66 1.744-2.004 1.7-3.878 4.662-1.83 2.963-3.093 7.538-1.264 4.532-1.264 8.933 0 4.444.392 6.58-1.481.13-1.656.13-2.875 0-4.226-1.22-1.395-1.22-1.395-3.835 0-2.57 1.09-9.978 3.224-22.701 3.224-34.466 0-5.316-.697-7.146 3.53 1.307 4.967 3.79 1.438 2.528 1.438 6.885 0 3.05-1.22 12.81-1.176 9.761-1.612 14.162zm46.144-13.159q-3.66 0-6.188 4.183-2.57 4.227-3.398 9.891h1.7q3.224 0 5.62-.915 2.353-.915 3.66-2.353 2.44-2.832 2.44-6.362 0-2.004-.958-3.224-.959-1.22-2.876-1.22zm8.584 24.706q-2.789 4.575-6.144 6.405t-7.8 1.83q-4.4 0-7.712-3.921-3.312-3.878-3.312-10.98 0-8.062 4.358-14.38 2.135-3.05 5.577-4.967 3.442-1.874 7.582-1.874 9.15 0 9.15 8.845 0 5.316-4.096 8.323-4.14 3.006-9.542 3.006-3.617 0-6.493-.653-.043.61-.043 1.873 0 10.807 6.405 10.807 6.013 0 9.804-5.97 2.266.305 2.266 1.656zm-1.22-32.462q-.044.654-.654 1.264-.566.566-1.307.74-2.179-2.745-5.621-5.403-3.442-2.701-7.015-3.79.13-3.181 2.963-5.011 3.224 1.263 6.666 5.054 3.443 3.747 4.968 7.146zm17.995 19.956q2.179-7.93 5.273-11.677 3.093-3.747 5.751-3.747 2.658 0 3.965 1.96 1.351 2.005 1.351 5.055t-1.568 5.272q-1.613 2.222-4.663 2.222-.958 0-1.525-.13 2.092-3.007 2.092-6.1 0-2.18-1.787-2.18-1.394 0-2.963 1.613-1.612 1.656-3.05 4.575-1.481 2.963-2.44 7.625-1.002 4.706-1.002 10.153 0 .61.305 5.185-1.569.13-1.83.13-5.36 0-5.36-5.271 0-1.22 1.308-9.369 1.263-8.191 1.263-13.028 0-4.88-1.046-8.932 3.617 1.394 5.055 3.965 1.438 2.614 1.438 6.056 0 3.443-.567 6.623zm35.948-12.2q-3.66 0-6.23 4.183-2.528 4.227-3.356 9.891h1.7q3.224 0 5.62-.915 2.353-.915 3.66-2.353 2.44-2.832 2.44-6.362 0-2.004-.958-3.224-.959-1.22-2.876-1.22zm8.584 24.706q-2.789 4.575-6.144 6.405t-7.8 1.83q-4.4 0-7.712-3.921-3.311-3.878-3.311-10.98 0-8.062 4.357-14.38 2.135-3.05 5.577-4.967 3.443-1.874 7.582-1.874 9.15 0 9.15 8.845 0 5.316-4.096 8.323-4.139 3.006-9.542 3.006-3.617 0-6.492-.653-.044.61-.044 1.873 0 10.807 6.405 10.807 6.013 0 9.804-5.97 2.266.305 2.266 1.656z" fill="#000"/><defs><linearGradient x1="0%" x2="100%" y1="0%" y2="0%" gradientTransform="rotate(25)"><stop offset="0%" stop-color="#b4373d"/><stop offset="100%" stop-color="#b23acb"/></linearGradient></defs><g fill="#1d1d1b" stroke="none" transform="translate(-4.369 -14.703) scale(1.21017)"><path d="M44 46.07V46a5.74 5.74 0 0 0-3.52-2.72h-.14a11.6 11.6 0 0 0-2.5-.47 15.62 15.62 0 0 1-6.43-2.38.75.75 0 0 0-.84 1.24 17.29 17.29 0 0 0 2 1.11c0 .1-.09.2-.12.31a6.09 6.09 0 0 0 4.15 7.51 6.46 6.46 0 0 0 1.78.25 5.9 5.9 0 0 0 4.69-2.28 10.33 10.33 0 0 1-.18 3 .75.75 0 0 0 .47 1 .76.76 0 0 0 .24 0 .75.75 0 0 0 .71-.51 11.57 11.57 0 0 0 .23-4.1 4.94 4.94 0 0 0-.54-1.89zm-4.47-1.49a1.28 1.28 0 0 1 0 .52 1.3 1.3 0 1 1-2.53-.71 1.27 1.27 0 0 1 .09-.17l.6.07a10.89 10.89 0 0 1 1.86.3zm.94 4.25a4.67 4.67 0 0 1-3.48.32 4.59 4.59 0 0 1-3.14-5.67v-.12a15.83 15.83 0 0 0 1.7.55v.06A2.8 2.8 0 1 0 41 45.14a3.86 3.86 0 0 1 1.48 1.32 4.27 4.27 0 0 1-1.99 2.37zm27.1-5.76c0-.11-.08-.2-.12-.31a17.29 17.29 0 0 0 2-1.11.75.75 0 0 0-.84-1.24 15.62 15.62 0 0 1-6.43 2.38 11.59 11.59 0 0 0-2.52.47h-.12A5.74 5.74 0 0 0 56 46v.05a4.94 4.94 0 0 0-.54 1.95 11.57 11.57 0 0 0 .23 4.1.75.75 0 0 0 .71.51.75.75 0 0 0 .72-1 10.27 10.27 0 0 1-.19-3 5.9 5.9 0 0 0 4.69 2.28 6.46 6.46 0 0 0 1.78-.25 6.09 6.09 0 0 0 4.17-7.57zm-5.3 1.22.6-.07a1.26 1.26 0 0 1 .09.17 1.3 1.3 0 0 1-.89 1.6 1.27 1.27 0 0 1-1.63-1.41 10.89 10.89 0 0 1 1.84-.29zm.73 4.86a4.67 4.67 0 0 1-3.48-.32 4.27 4.27 0 0 1-2-2.38A3.86 3.86 0 0 1 59 45.14a2.84 2.84 0 0 0 .07.37 2.8 2.8 0 0 0 2.69 2A2.8 2.8 0 0 0 64.41 44v-.06a15.83 15.83 0 0 0 1.7-.55v.12A4.59 4.59 0 0 1 63 49.15z"/><path d="M46.33 44.89c-.16-2.25-2-3.68-5.15-3.92a11.57 11.57 0 0 1-4.68-1.69.75.75 0 0 0-.83 1.25 12.92 12.92 0 0 0 5.4 1.93c1.35.1 3.63.57 3.77 2.53a.75.75 0 0 0 .75.7h.05a.75.75 0 0 0 .69-.8zm12.98-2.43a12.92 12.92 0 0 0 5.4-1.93.75.75 0 0 0-.83-1.25A11.58 11.58 0 0 1 59.19 41c-3.11.24-5 1.67-5.15 3.92a.75.75 0 0 0 .7.8h.05a.75.75 0 0 0 .75-.7c.14-2.02 2.46-2.45 3.77-2.56zm-24.67-5.21a.75.75 0 1 0 1.16-.95l-3.19-3.92a.75.75 0 1 0-1.16.95zM38 35.08a.75.75 0 0 0 .7.48.75.75 0 0 0 .7-1l-1.41-3.68a.75.75 0 1 0-1.4.54zm4 .11a.75.75 0 0 0 .75-.69l.25-3.18a.75.75 0 0 0-.69-.81.74.74 0 0 0-.81.69l-.25 3.19a.75.75 0 0 0 .75.8z"/><path d="M95.31 61c-3.9-1.24-13.08-1.13-20.54-.79 5-6.31 5-12.41 4.11-15.28-.68-2.15-1.73-7.57-.39-9.68a1.56 1.56 0 0 1 1.18-.77c1.76-.23 2.08-2.06 2.33-3.52a8.38 8.38 0 0 1 .35-1.54 4.25 4.25 0 0 1 1.22-1.37 10.59 10.59 0 0 0 3.18-4.23c1.59-3.91-.54-5.84-.63-5.92a.73.73 0 0 0-.28-.13h-.14a6.16 6.16 0 0 0-4.81.73c-.68.33-1.52.73-2.76 1.25a6.88 6.88 0 0 1-8-1.32c-4.5-4.32-7.67-5.57-20.08-5.57s-15.54 1.26-20 5.57a6.88 6.88 0 0 1-8 1.32 51.69 51.69 0 0 1-2.76-1.25 6.16 6.16 0 0 0-4.81-.73h-.14a.73.73 0 0 0-.28.13c-.09.08-2.22 2-.63 5.92a10.59 10.59 0 0 0 3.18 4.23 4.26 4.26 0 0 1 1.22 1.37A8.4 8.4 0 0 1 18 31c.25 1.47.56 3.29 2.33 3.52a1.56 1.56 0 0 1 1.18.77c1.34 2.11.29 7.53-.39 9.68-.91 2.87-.87 9 4.11 15.28-7.46-.34-16.64-.45-20.54.79a.75.75 0 0 0 .46 1.43c4.09-1.3 15-1 21.18-.66h.25l.65.69c-7.68.11-12.89.64-15.5 1.58a.75.75 0 1 0 .51 1.41c2.58-.93 8.3-1.45 16.56-1.51.35.3.71.59 1.07.88-6.47.36-17 1.21-21 3a.75.75 0 0 0 .6 1.37c4.17-1.83 16.18-2.64 22.22-2.95l1 .72.1.07c-6.29.61-10.59 1.4-12.79 2.36a.75.75 0 0 0 .6 1.37c2.07-.91 6.45-1.69 12.72-2.28A19.94 19.94 0 0 0 34 74c1.63 4.32 3.86 5.38 6.46 5.6a5.67 5.67 0 0 0 1.52 1.81 15.18 15.18 0 0 0-3.39 4.47.75.75 0 0 0 1.4.54c.27-.7 1.08-2 3.29-4.19a10.86 10.86 0 0 0 2 .78 11.32 11.32 0 0 0-.92 3.43.75.75 0 0 0 .71.79.75.75 0 0 0 .75-.71 10.34 10.34 0 0 1 .91-3.17 19.89 19.89 0 0 0 6.54 0 10.5 10.5 0 0 1 .91 3.17.75.75 0 0 0 .75.71.75.75 0 0 0 .71-.79 11.32 11.32 0 0 0-.89-3.44 10.86 10.86 0 0 0 2-.78c2.21 2.19 3 3.49 3.29 4.19a.75.75 0 0 0 1.4-.54 15.18 15.18 0 0 0-3.39-4.47 5.67 5.67 0 0 0 1.52-1.81c2.6-.22 4.83-1.27 6.45-5.59a19.92 19.92 0 0 0 .65-5.45c6.27.59 10.66 1.37 12.72 2.28a.75.75 0 1 0 .6-1.37c-2.22-1-6.6-1.77-13-2.38l.8-.56.31-.22c6 .3 18.2 1.11 22.42 3a.75.75 0 0 0 .6-1.37c-4.06-1.78-14.61-2.62-21.07-3q.57-.43 1.11-.88c8.28.05 14 .57 16.59 1.51a.75.75 0 0 0 .51-1.41c-2.6-.94-7.81-1.47-15.5-1.58l.65-.69h.25c6.15-.31 17.09-.64 21.18.66a.75.75 0 0 0 .47-1.54zm-42 18.91a.75.75 0 1 0-1.3.75c.16.27.39.7.64 1.2a18.15 18.15 0 0 1-5.22 0c.35-.71.63-1.19.64-1.2a.75.75 0 1 0-1.3-.75c0 .06-.42.73-.87 1.66a7 7 0 0 1-3.58-2h2.43A6 6 0 0 0 50 76.43a6 6 0 0 0 5.29 3.13h2.43a7 7 0 0 1-3.58 2c-.45-.9-.83-1.56-.87-1.63zm17.1-17.26-.08.06c-.84.7-1.77 1.38-2.68 2h-.78c.13-1.71.45-3.25 1.07-3.71a.75.75 0 0 0-.94-1.2c-1 .83-1.44 2.64-1.63 4.83h-.61a.73.73 0 0 0-.77.73.75.75 0 0 0 .73.77h.56v.74h-.18a.76.76 0 0 0-.81.68.75.75 0 0 0 .68.81h.21a20 20 0 0 1-.56 5.05c-1.41 3.75-3.1 4.54-5.55 4.66h-3.78a4.54 4.54 0 0 1-4.53-4.46 5.51 5.51 0 0 1 1.16-.84c1-.64 2.47-1.52 1.93-2.79-.19-.44-.06-.65 1.66-1.82l.63-.43a2.48 2.48 0 0 0 1.3-2 2.08 2.08 0 0 0-.95-1.6.74.74 0 0 0-1 .22.76.76 0 0 0 .21 1c.08.06.26.23.27.37s-.17.41-.66.75l-.62.43c-1.63 1.1-2.91 2-2.2 3.57-.08.25-.89.74-1.33 1a10.22 10.22 0 0 0-1.13.77 10.22 10.22 0 0 0-1.13-.77 7.46 7.46 0 0 1-1.33-.93c.71-1.67-.58-2.54-2.2-3.65l-.62-.43c-.48-.34-.66-.61-.66-.75s.18-.31.26-.37a.75.75 0 0 0-.81-1.26 2.08 2.08 0 0 0-.95 1.6 2.48 2.48 0 0 0 1.3 2l.63.43c1.73 1.17 1.85 1.38 1.66 1.82-.54 1.28.89 2.15 1.93 2.79a10.47 10.47 0 0 1 1.16.77 4.54 4.54 0 0 1-4.54 4.52h-1.56c-3.72.09-6 .14-7.78-4.66a20.07 20.07 0 0 1-.56-5.05h.21a.75.75 0 1 0-.13-1.5h-.14v-.74h.56a.75.75 0 0 0 0-1.5h-.61c-.19-2.19-.58-4-1.63-4.83A.75.75 0 1 0 32.06 61c.62.49.91 2 1.06 3.71h-.95c-.85-.64-1.7-1.31-2.48-2a.73.73 0 0 0-.15-.14c-.26-.23-.52-.46-.76-.69l2.33.15h.06a.75.75 0 0 0 .06-1.5s-1.57-.12-4-.25c-5.44-6.19-5.58-12.2-4.72-14.92 0-.08 2.33-7.62.23-10.93a3.07 3.07 0 0 0-2.2-1.43c-.62-.08-.82-1-1-2.29a9.51 9.51 0 0 0-.44-1.84 5.37 5.37 0 0 0-1.63-1.95 9 9 0 0 1-2.78-3.67c-1-2.36-.23-3.66.1-4.08a3.19 3.19 0 0 1 2.07.54c.07.06 7.52 5.52 10.79 5.52H28c-3 2.15-4.76 4.9-4.76 7.59a.75.75 0 0 0 1.5 0c0-2.81 2.6-5.89 6.63-7.86a13.71 13.71 0 0 0 4.48-1.49.75.75 0 1 0-.73-1.31 15.48 15.48 0 0 1-7.56 1.58c-1.25 0-3.64-1.21-5.86-2.55a8.3 8.3 0 0 0 9.3-1.73c4-3.82 6.49-5.15 19-5.15s15 1.34 19 5.15a8.18 8.18 0 0 0 5.77 2.45 9.77 9.77 0 0 0 3.44-.68c-2.21 1.33-4.6 2.53-5.84 2.53a15.48 15.48 0 0 1-7.56-1.58.75.75 0 0 0-.73 1.31A13.72 13.72 0 0 0 68.59 25c4 2 6.63 5 6.63 7.86a.75.75 0 0 0 1.5 0c0-2.7-1.77-5.45-4.76-7.59h.44c3.27 0 10.72-5.46 10.79-5.52a3.19 3.19 0 0 1 2.06-.54c.33.43 1.05 1.73.1 4.08a9 9 0 0 1-2.78 3.67 5.37 5.37 0 0 0-1.63 1.95 9.49 9.49 0 0 0-.44 1.84c-.23 1.33-.42 2.21-1 2.29a3.07 3.07 0 0 0-2.25 1.45c-2.11 3.31.2 10.86.23 10.93.87 2.73.72 8.74-4.72 14.92-2.39.13-4 .25-4 .25a.75.75 0 0 0 .06 1.5h.06l2.33-.15c-.21.23-.52.47-.8.71z"/><path d="M64.77 37.53a.75.75 0 0 0 .58-.28l3.19-3.92a.75.75 0 1 0-1.16-.95l-3.19 3.92a.75.75 0 0 0 .58 1.22zm-3.7-2.02a.74.74 0 0 0 .27 0 .75.75 0 0 0 .7-.48l1.41-3.68a.75.75 0 1 0-1.4-.54l-1.41 3.68a.75.75 0 0 0 .43 1.02zM58 35.2a.75.75 0 0 0 .69-.81l-.25-3.19a.75.75 0 0 0-1.5.12l.25 3.19a.75.75 0 0 0 .81.69z"/><circle cx="38.13" cy="69.84" r="1.05"/><circle cx="38.48" cy="73.41" r="1.05"/><circle cx="41.22" cy="75.76" r="1.05"/><circle cx="42.14" cy="72.11" r="1.05"/><circle cx="45.06" cy="73.95" r="1.05"/><circle cx="61.87" cy="69.84" r="1.05"/><circle cx="61.52" cy="73.41" r="1.05"/><circle cx="58.78" cy="75.76" r="1.05"/><circle cx="57.86" cy="72.11" r="1.05"/><circle cx="54.94" cy="73.95" r="1.05"/><path d="M53.56 52.5a.75.75 0 0 0-.81.69A9.21 9.21 0 0 1 50 58.58a9.16 9.16 0 0 1-2.73-5.4.75.75 0 0 0-1.5.12 11 11 0 0 0 3.73 6.86.75.75 0 0 0 .47.17.75.75 0 0 0 .47-.17 11 11 0 0 0 3.73-6.86.75.75 0 0 0-.61-.8zm-13.19 2.7a.75.75 0 0 0-1 .27c-.2.35-.46.72-.73 1.11-1.34 1.94-3.36 4.88-.51 8a.75.75 0 0 0 1.1-1c-1.89-2.05-.93-3.82.64-6.1.29-.43.57-.83.79-1.21a.75.75 0 0 0-.29-1.07zm20.32.27a.75.75 0 1 0-1.3.75c.22.38.5.78.79 1.21 1.57 2.28 2.53 4.05.64 6.1a.75.75 0 1 0 1.1 1c2.85-3.09.83-6-.51-8-.25-.34-.51-.71-.72-1.06zM41.89 65a.75.75 0 0 0-1.43-.46 4.13 4.13 0 0 0 1.91 4.82.75.75 0 0 0 .75-1.3A2.62 2.62 0 0 1 41.89 65zm15.73 4.33a4.13 4.13 0 0 0 1.91-4.82.75.75 0 0 0-1.43.46A2.62 2.62 0 0 1 56.87 68a.75.75 0 0 0 .75 1.3zm-4.74-4.18a3.83 3.83 0 0 1-5.77 0 .75.75 0 0 0-1.16 1 5.32 5.32 0 0 0 8.08 0 .75.75 0 0 0-1.16-1zM30.51 50.52a.75.75 0 1 0-.72 1.31c2.63 1.45 3.77 3.59 3.77 4.36a.75.75 0 0 0 1.5 0c0-1.55-1.7-4.1-4.55-5.67zm40.08.3a.75.75 0 0 0-1-.3C66.72 52.09 65 54.64 65 56.2a.75.75 0 0 0 1.5 0c0-.77 1.14-2.92 3.77-4.36a.75.75 0 0 0 .32-1.02z"/></g><path d="m138.127 68.966-1.11-2.772h-4.224l-1.1 2.772h-.707l3.527-8.833h.794l3.527 8.833h-.707zm-5.086-3.384h3.738l-1.54-3.852-.324-.937h-.01l-.325.908-1.539 3.88zm17.302-.937h3.632v4.32h-.535l-.028-1.538q-.364.803-1.128 1.242-.775.43-1.912.43-1.205 0-2.103-.554-.908-.554-1.396-1.587t-.487-2.408q0-1.377.506-2.41.497-1.032 1.405-1.586.909-.555 2.113-.555 1.357 0 2.208.536.86.535 1.29 1.634l-.62.316q-.307-.918-1.033-1.396t-1.845-.478q-.985 0-1.74.478-.745.478-1.156 1.367-.421.89-.421 2.094 0 1.835.88 2.886t2.427 1.052q.966 0 1.635-.382t.985-1.004q.325-.622.325-1.338v-.488h-3.002v-.63zm13.364 3.709h5.572v.612h-6.242v-8.833h6.032v.612h-5.362v3.413h4.234v.63h-4.234v3.566zm20.991-8.22v8.832h-.832l-4.683-6.93-.65-1.176h-.02l.048 1.109v6.997h-.65v-8.833h.851l4.665 6.921.669 1.185-.029-1.109v-6.997h.631zm16.46 6.595q-.372 1.128-1.3 1.75-.936.62-2.227.62-1.204 0-2.122-.554-.908-.554-1.405-1.587-.487-1.032-.487-2.408t.487-2.41q.497-1.032 1.405-1.586.918-.555 2.103-.555 2.648 0 3.432 2.18l-.66.306q-.305-.937-.984-1.405t-1.75-.469q-.984 0-1.74.478t-1.175 1.367q-.411.89-.411 2.094 0 1.204.411 2.093.402.889 1.147 1.367.746.478 1.75.478 1.07 0 1.816-.526.745-.526 1.042-1.482l.669.249zm9.33 1.625h5.583v.612h-6.252v-8.833h6.032v.612h-5.363v3.413h4.244v.63h-4.244v3.566zm27.874-8.22q2.113 0 3.26 1.118 1.147 1.118 1.147 3.23 0 2.17-1.147 3.327t-3.26 1.157h-2.781v-8.833h2.781zm.058 8.22q1.768 0 2.705-1.004.946-.994.946-2.867 0-1.797-.946-2.763-.937-.975-2.705-.975h-2.17v7.609h2.17zm13.946 0h5.573v.612h-6.242v-8.833h6.032v.612h-5.363v3.413h4.235v.63h-4.235v3.566zm29.461-5.582-1.778 6.194h-.831l-2.753-8.833h.726l2.447 8.288 2.313-8.288h.775l2.313 8.298 2.476-8.298h.688l-2.763 8.833h-.822l-1.787-6.194-.488-1.912h-.019l-.497 1.912zm15.524 5.582h5.582v.612h-6.251v-8.833h6.041v.612h-5.372v3.413h4.244v.63h-4.244v3.566zm14.214.612v-8.833h3.116q1.453 0 2.17.603.708.602.708 1.74 0 .774-.42 1.309t-1.196.698v.01q.86.133 1.358.697.506.564.506 1.396 0 1.137-.812 1.758-.813.622-2.314.622h-3.116zm.67-4.76h2.466q2.15 0 2.15-1.73t-2.15-1.73h-2.467v3.46zm0 4.148h2.58q1.128 0 1.702-.459.573-.459.573-1.31 0-.87-.573-1.319-.574-.449-1.702-.449h-2.58v3.537zm28.141-8.22q2.122 0 3.26 1.118 1.147 1.118 1.147 3.23 0 2.17-1.147 3.327-1.138 1.157-3.26 1.157h-2.782v-8.833h2.782zm.057 8.22q1.769 0 2.715-1.004.937-.994.937-2.867 0-1.797-.937-2.763-.946-.975-2.715-.975h-2.17v7.609h2.17zm13.947 0h5.582v.612h-6.251v-8.833h6.032v.612h-5.363v3.413h4.244v.63h-4.244v3.566zm16.938-8.355q2.495 0 3.337 1.95l-.574.469q-.335-.946-1.004-1.377-.66-.43-1.74-.43-.783 0-1.357.249-.573.239-.87.65-.306.42-.306.937 0 .506.259.84.248.335.86.574.612.23 1.682.42 1.72.297 2.447.861.717.555.717 1.549 0 .707-.41 1.262-.412.544-1.167.84-.765.307-1.74.307-1.386 0-2.342-.555-.965-.554-1.31-1.558l.593-.459q.268.956 1.071 1.453.813.507 2.007.507 1.147 0 1.874-.469.736-.468.736-1.29 0-.707-.602-1.118-.593-.421-2.065-.67-1.243-.22-1.97-.525-.716-.306-1.031-.765-.316-.45-.316-1.138 0-.678.392-1.252.392-.583 1.128-.917.726-.345 1.701-.345zm12.915.134v8.833h-.67v-8.833h.67zm12.876 4.512h3.623v4.32h-.536l-.019-1.538q-.363.803-1.137 1.242-.765.43-1.903.43-1.204 0-2.112-.554-.899-.554-1.386-1.587t-.488-2.408q0-1.377.497-2.41.507-1.032 1.415-1.586.908-.555 2.113-.555 1.347 0 2.208.536.86.535 1.28 1.634l-.611.316q-.306-.918-1.033-1.396-.736-.478-1.844-.478-.995 0-1.74.478t-1.166 1.367q-.411.89-.411 2.094 0 1.835.879 2.886.87 1.052 2.428 1.052.956 0 1.625-.382t.994-1.004q.325-.622.325-1.338v-.488h-3.001v-.63zm19.471-4.512v8.833h-.831l-4.684-6.93-.65-1.176h-.02l.039 1.109v6.997h-.64v-8.833h.84l4.675 6.921.67 1.185-.03-1.109v-6.997h.631z" fill="#000"/></svg>